<svg xmlns="http://www.w3.org/2000/svg" viewBox="0 0 163 120"><g id="main" fill="var(--color-ui-color, #231f20)"><path d="M44.518466 103.7444h-3.622171v15.9878h10.134879v-2.83683h-6.512708zm-18.824489 0-5.263683 16.00609h3.408l1.088488-3.55097h5.799l1.088415 3.55097h3.782708l-5.192342-16.00609h-4.728366zm.01785 9.8678 2.123341-6.92341 2.105488 6.92341zm34.133782-9.8678h-3.622098v15.9878h10.134806v-2.83683h-6.512704ZM9.0820981 113.8083h3.6043169c-.07134 1.83805-1.159829 3.39-3.8541218 3.39-3.1403563 0-4.4607442-2.21268-4.4607442-5.29976v-.1778c0-3.26561 1.6415635-5.35317 4.4072564-5.35317 1.9270246 0 3.1581956.85609 3.4615616 2.73h3.604244c-.374708-3.96147-3.550757-5.58512-7.1193666-5.58512-4.7283954 0-8.13642339 3.35414-8.13642339 8.17243v.17854c0 4.74659 2.90841819 8.13659 8.13642339 8.13659 4.7819276 0 7.5119276-2.83683 7.5119276-7.11952v-1.69536H9.0820981v2.64073zm66.1622969-.87439h5.46v-2.64073h-5.46v-3.72952h6.833415v-2.81926H71.657712v15.9878h10.777171v-2.80097h-7.190488zm24.998045-4.3361c0-3.31902-2.391215-4.85341-6.174142-4.85341h-5.727073v16.00609h3.60439v-6.17414h1.569512l3.836342 6.17414h3.836341l-4.228536-6.79902c1.873171-.55317 3.283166-1.83805 3.283166-4.24683zm-3.53341.1961c0 1.55268-.927805 2.30195-2.729268 2.30195h-2.034147v-4.58561h2.034147c1.748048 0 2.729268.55317 2.729268 2.19439zm14.64951 1.08878-3.24731-6.13829h-3.97903l5.28146 9.10024v6.88756h3.64025v-6.88756l4.9961-9.10024h-3.51513zM23.909709 78.976834h1.570171l3.836268 6.174147h3.854122l-4.228829-6.798293c1.873536-.553171 3.283097-1.838049 3.283097-4.24683v-.08927c0-3.319171-2.390926-4.853781-6.173634-4.853781h-5.727659v15.988172h3.604317v-6.174147zm0-7.048171h2.034073c1.748634 0 2.73.553097 2.73 2.194756v.08927c0 1.534391-.909951 2.301952-2.73 2.301952h-2.034073ZM4.6748856 81.600005h5.7989934l1.088414 3.550976h3.782708l-5.192269-15.988172h-4.7106L.1784305 85.150981h3.4080258zm2.9083831-9.492952 2.105488 6.923196H5.4599784ZM41.217441 85.150981h3.657879v-13.16883h4.318024v-2.819342H36.899417v2.819342h4.318024zm117.942809-50.56954-3.17634 6.138293-3.24732-6.138293h-3.97902l5.28146 9.100318v6.887781h3.64025v-6.887781l4.9961-9.100318zm-113.785321 0h-3.640024v16.005952h3.640024zm65.644831 13.597025c-2.37366 0-2.98024-1.195536-3.14049-2.623097h-3.4617c.19609 3.194048 2.21268 5.263975 6.60219 5.263975 3.7822 0 6.10244-2.248317 6.10244-5.103366 0-3.318951-1.98073-4.371732-5.85293-4.853488-2.46219-.356927-2.97951-.892244-2.97951-2.034219 0-1.070635.80269-1.820122 2.39049-1.820122 1.58854 0 2.44463.678073 2.65902 2.123487h3.33659c-.28537-3.176268-2.39122-4.782219-5.99561-4.782219s-5.81634 2.034219-5.81634 4.764366c0 3.087 1.67707 4.318171 5.76293 4.853488 2.35536.356927 3.01536.802976 3.01536 2.08778 0 1.284732-1.05219 2.123415-2.64073 2.123415zm21.28683-10.777683h4.31781V50.56954h3.64024V37.400783h4.31781v-2.819342h-12.27586ZM1.3025415 34.581441v9.760537c0 4.246903 2.3909709 6.49522 6.6019468 6.49522 4.2109757 0 6.7625127-2.248317 6.7625127-6.620122v-9.617781h-3.640025v9.403683c0 2.926391-.945658 3.961317-3.0867804 3.961317-2.1412026 0-2.979827-1.159829-2.979827-3.818561v-9.528659H1.3025415Zm125.3655185 0h-3.64025v16.005952h3.64025zM81.221712 47.768052h-7.190488v-3.997025h5.459268v-2.640878h-5.459268v-3.729366h6.833415v-2.819342H70.426541V50.56954h10.795171ZM65.376955 34.581441h-3.390146l-3.800562 12.276586-3.800561-12.276586h-3.836268l5.352878 15.988099h4.157415zm25.337197 9.814098h1.570244l3.836341 6.174001h3.836342l-4.229269-6.798513c1.873903-.553171 3.283171-1.837903 3.283171-4.24683v-.08927c0-3.318951-2.390488-4.853488-6.173415-4.853488h-5.727805v16.005952h3.604391zm0-7.048317h2.034146c1.748781 0 2.73.55317 2.73 2.194756v.08927c0 1.552391-.910244 2.301878-2.73 2.301878h-2.034146Zm-59.114126 7.779951-6.084439-10.545732h-4.210976V50.56954h3.22961V39.185124l6.673317 11.384416h3.622098V34.581441h-3.22961zm-4.853268-32.689977 1.088414 3.550902h3.782708L26.425538 0h-4.728366l-5.263683 15.988098h3.408l1.088415-3.550902zm-2.89061-9.4929592 2.105488 6.9234223h-4.228757ZM5.2815442 15.988098h3.6400173V9.1003908L13.917586 0h-3.515049l-3.1761 6.138293L3.9790027 0H0l5.2815442 9.1003908Zm57.8472398-2.801487h-7.172927V9.1895859h5.459927V6.5665467h-5.459927V2.8193343h6.816V0H52.35154v15.988098h10.777244Zm-16.076635-.035708h-6.512708V0H36.91727v15.988098h10.134879z"/></g></svg>
<g xmlns="http://www.w3.org/2000/svg" id="main" fill="var(--color-ui-color, #231f20)"><path d="M44.518466 103.7444h-3.622171v15.9878h10.134879v-2.83683h-6.512708zm-18.824489 0-5.263683 16.00609h3.408l1.088488-3.55097h5.799l1.088415 3.55097h3.782708l-5.192342-16.00609h-4.728366zm.01785 9.8678 2.123341-6.92341 2.105488 6.92341zm34.133782-9.8678h-3.622098v15.9878h10.134806v-2.83683h-6.512704ZM9.0820981 113.8083h3.6043169c-.07134 1.83805-1.159829 3.39-3.8541218 3.39-3.1403563 0-4.4607442-2.21268-4.4607442-5.29976v-.1778c0-3.26561 1.6415635-5.35317 4.4072564-5.35317 1.9270246 0 3.1581956.85609 3.4615616 2.73h3.604244c-.374708-3.96147-3.550757-5.58512-7.1193666-5.58512-4.7283954 0-8.13642339 3.35414-8.13642339 8.17243v.17854c0 4.74659 2.90841819 8.13659 8.13642339 8.13659 4.7819276 0 7.5119276-2.83683 7.5119276-7.11952v-1.69536H9.0820981v2.64073zm66.1622969-.87439h5.46v-2.64073h-5.46v-3.72952h6.833415v-2.81926H71.657712v15.9878h10.777171v-2.80097h-7.190488zm24.998045-4.3361c0-3.31902-2.391215-4.85341-6.174142-4.85341h-5.727073v16.00609h3.60439v-6.17414h1.569512l3.836342 6.17414h3.836341l-4.228536-6.79902c1.873171-.55317 3.283166-1.83805 3.283166-4.24683zm-3.53341.1961c0 1.55268-.927805 2.30195-2.729268 2.30195h-2.034147v-4.58561h2.034147c1.748048 0 2.729268.55317 2.729268 2.19439zm14.64951 1.08878-3.24731-6.13829h-3.97903l5.28146 9.10024v6.88756h3.64025v-6.88756l4.9961-9.10024h-3.51513zM23.909709 78.976834h1.570171l3.836268 6.174147h3.854122l-4.228829-6.798293c1.873536-.553171 3.283097-1.838049 3.283097-4.24683v-.08927c0-3.319171-2.390926-4.853781-6.173634-4.853781h-5.727659v15.988172h3.604317v-6.174147zm0-7.048171h2.034073c1.748634 0 2.73.553097 2.73 2.194756v.08927c0 1.534391-.909951 2.301952-2.73 2.301952h-2.034073ZM4.6748856 81.600005h5.7989934l1.088414 3.550976h3.782708l-5.192269-15.988172h-4.7106L.1784305 85.150981h3.4080258zm2.9083831-9.492952 2.105488 6.923196H5.4599784ZM41.217441 85.150981h3.657879v-13.16883h4.318024v-2.819342H36.899417v2.819342h4.318024zm117.942809-50.56954-3.17634 6.138293-3.24732-6.138293h-3.97902l5.28146 9.100318v6.887781h3.64025v-6.887781l4.9961-9.100318zm-113.785321 0h-3.640024v16.005952h3.640024zm65.644831 13.597025c-2.37366 0-2.98024-1.195536-3.14049-2.623097h-3.4617c.19609 3.194048 2.21268 5.263975 6.60219 5.263975 3.7822 0 6.10244-2.248317 6.10244-5.103366 0-3.318951-1.98073-4.371732-5.85293-4.853488-2.46219-.356927-2.97951-.892244-2.97951-2.034219 0-1.070635.80269-1.820122 2.39049-1.820122 1.58854 0 2.44463.678073 2.65902 2.123487h3.33659c-.28537-3.176268-2.39122-4.782219-5.99561-4.782219s-5.81634 2.034219-5.81634 4.764366c0 3.087 1.67707 4.318171 5.76293 4.853488 2.35536.356927 3.01536.802976 3.01536 2.08778 0 1.284732-1.05219 2.123415-2.64073 2.123415zm21.28683-10.777683h4.31781V50.56954h3.64024V37.400783h4.31781v-2.819342h-12.27586ZM1.3025415 34.581441v9.760537c0 4.246903 2.3909709 6.49522 6.6019468 6.49522 4.2109757 0 6.7625127-2.248317 6.7625127-6.620122v-9.617781h-3.640025v9.403683c0 2.926391-.945658 3.961317-3.0867804 3.961317-2.1412026 0-2.979827-1.159829-2.979827-3.818561v-9.528659H1.3025415Zm125.3655185 0h-3.64025v16.005952h3.64025zM81.221712 47.768052h-7.190488v-3.997025h5.459268v-2.640878h-5.459268v-3.729366h6.833415v-2.819342H70.426541V50.56954h10.795171ZM65.376955 34.581441h-3.390146l-3.800562 12.276586-3.800561-12.276586h-3.836268l5.352878 15.988099h4.157415zm25.337197 9.814098h1.570244l3.836341 6.174001h3.836342l-4.229269-6.798513c1.873903-.553171 3.283171-1.837903 3.283171-4.24683v-.08927c0-3.318951-2.390488-4.853488-6.173415-4.853488h-5.727805v16.005952h3.604391zm0-7.048317h2.034146c1.748781 0 2.73.55317 2.73 2.194756v.08927c0 1.552391-.910244 2.301878-2.73 2.301878h-2.034146Zm-59.114126 7.779951-6.084439-10.545732h-4.210976V50.56954h3.22961V39.185124l6.673317 11.384416h3.622098V34.581441h-3.22961zm-4.853268-32.689977 1.088414 3.550902h3.782708L26.425538 0h-4.728366l-5.263683 15.988098h3.408l1.088415-3.550902zm-2.89061-9.4929592 2.105488 6.9234223h-4.228757ZM5.2815442 15.988098h3.6400173V9.1003908L13.917586 0h-3.515049l-3.1761 6.138293L3.9790027 0H0l5.2815442 9.1003908Zm57.8472398-2.801487h-7.172927V9.1895859h5.459927V6.5665467h-5.459927V2.8193343h6.816V0H52.35154v15.988098h10.777244Zm-16.076635-.035708h-6.512708V0H36.91727v15.988098h10.134879z"/></g>
<path xmlns="http://www.w3.org/2000/svg" d="M44.518466 103.7444h-3.622171v15.9878h10.134879v-2.83683h-6.512708zm-18.824489 0-5.263683 16.00609h3.408l1.088488-3.55097h5.799l1.088415 3.55097h3.782708l-5.192342-16.00609h-4.728366zm.01785 9.8678 2.123341-6.92341 2.105488 6.92341zm34.133782-9.8678h-3.622098v15.9878h10.134806v-2.83683h-6.512704ZM9.0820981 113.8083h3.6043169c-.07134 1.83805-1.159829 3.39-3.8541218 3.39-3.1403563 0-4.4607442-2.21268-4.4607442-5.29976v-.1778c0-3.26561 1.6415635-5.35317 4.4072564-5.35317 1.9270246 0 3.1581956.85609 3.4615616 2.73h3.604244c-.374708-3.96147-3.550757-5.58512-7.1193666-5.58512-4.7283954 0-8.13642339 3.35414-8.13642339 8.17243v.17854c0 4.74659 2.90841819 8.13659 8.13642339 8.13659 4.7819276 0 7.5119276-2.83683 7.5119276-7.11952v-1.69536H9.0820981v2.64073zm66.1622969-.87439h5.46v-2.64073h-5.46v-3.72952h6.833415v-2.81926H71.657712v15.9878h10.777171v-2.80097h-7.190488zm24.998045-4.3361c0-3.31902-2.391215-4.85341-6.174142-4.85341h-5.727073v16.00609h3.60439v-6.17414h1.569512l3.836342 6.17414h3.836341l-4.228536-6.79902c1.873171-.55317 3.283166-1.83805 3.283166-4.24683zm-3.53341.1961c0 1.55268-.927805 2.30195-2.729268 2.30195h-2.034147v-4.58561h2.034147c1.748048 0 2.729268.55317 2.729268 2.19439zm14.64951 1.08878-3.24731-6.13829h-3.97903l5.28146 9.10024v6.88756h3.64025v-6.88756l4.9961-9.10024h-3.51513zM23.909709 78.976834h1.570171l3.836268 6.174147h3.854122l-4.228829-6.798293c1.873536-.553171 3.283097-1.838049 3.283097-4.24683v-.08927c0-3.319171-2.390926-4.853781-6.173634-4.853781h-5.727659v15.988172h3.604317v-6.174147zm0-7.048171h2.034073c1.748634 0 2.73.553097 2.73 2.194756v.08927c0 1.534391-.909951 2.301952-2.73 2.301952h-2.034073ZM4.6748856 81.600005h5.7989934l1.088414 3.550976h3.782708l-5.192269-15.988172h-4.7106L.1784305 85.150981h3.4080258zm2.9083831-9.492952 2.105488 6.923196H5.4599784ZM41.217441 85.150981h3.657879v-13.16883h4.318024v-2.819342H36.899417v2.819342h4.318024zm117.942809-50.56954-3.17634 6.138293-3.24732-6.138293h-3.97902l5.28146 9.100318v6.887781h3.64025v-6.887781l4.9961-9.100318zm-113.785321 0h-3.640024v16.005952h3.640024zm65.644831 13.597025c-2.37366 0-2.98024-1.195536-3.14049-2.623097h-3.4617c.19609 3.194048 2.21268 5.263975 6.60219 5.263975 3.7822 0 6.10244-2.248317 6.10244-5.103366 0-3.318951-1.98073-4.371732-5.85293-4.853488-2.46219-.356927-2.97951-.892244-2.97951-2.034219 0-1.070635.80269-1.820122 2.39049-1.820122 1.58854 0 2.44463.678073 2.65902 2.123487h3.33659c-.28537-3.176268-2.39122-4.782219-5.99561-4.782219s-5.81634 2.034219-5.81634 4.764366c0 3.087 1.67707 4.318171 5.76293 4.853488 2.35536.356927 3.01536.802976 3.01536 2.08778 0 1.284732-1.05219 2.123415-2.64073 2.123415zm21.28683-10.777683h4.31781V50.56954h3.64024V37.400783h4.31781v-2.819342h-12.27586ZM1.3025415 34.581441v9.760537c0 4.246903 2.3909709 6.49522 6.6019468 6.49522 4.2109757 0 6.7625127-2.248317 6.7625127-6.620122v-9.617781h-3.640025v9.403683c0 2.926391-.945658 3.961317-3.0867804 3.961317-2.1412026 0-2.979827-1.159829-2.979827-3.818561v-9.528659H1.3025415Zm125.3655185 0h-3.64025v16.005952h3.64025zM81.221712 47.768052h-7.190488v-3.997025h5.459268v-2.640878h-5.459268v-3.729366h6.833415v-2.819342H70.426541V50.56954h10.795171ZM65.376955 34.581441h-3.390146l-3.800562 12.276586-3.800561-12.276586h-3.836268l5.352878 15.988099h4.157415zm25.337197 9.814098h1.570244l3.836341 6.174001h3.836342l-4.229269-6.798513c1.873903-.553171 3.283171-1.837903 3.283171-4.24683v-.08927c0-3.318951-2.390488-4.853488-6.173415-4.853488h-5.727805v16.005952h3.604391zm0-7.048317h2.034146c1.748781 0 2.73.55317 2.73 2.194756v.08927c0 1.552391-.910244 2.301878-2.73 2.301878h-2.034146Zm-59.114126 7.779951-6.084439-10.545732h-4.210976V50.56954h3.22961V39.185124l6.673317 11.384416h3.622098V34.581441h-3.22961zm-4.853268-32.689977 1.088414 3.550902h3.782708L26.425538 0h-4.728366l-5.263683 15.988098h3.408l1.088415-3.550902zm-2.89061-9.4929592 2.105488 6.9234223h-4.228757ZM5.2815442 15.988098h3.6400173V9.1003908L13.917586 0h-3.515049l-3.1761 6.138293L3.9790027 0H0l5.2815442 9.1003908Zm57.8472398-2.801487h-7.172927V9.1895859h5.459927V6.5665467h-5.459927V2.8193343h6.816V0H52.35154v15.988098h10.777244Zm-16.076635-.035708h-6.512708V0H36.91727v15.988098h10.134879z"/>
<g xmlns="http://www.w3.org/2000/svg" id="main" fill="var(--color-ui-color, #231f20)"><path d="M44.518466 103.7444h-3.622171v15.9878h10.134879v-2.83683h-6.512708zm-18.824489 0-5.263683 16.00609h3.408l1.088488-3.55097h5.799l1.088415 3.55097h3.782708l-5.192342-16.00609h-4.728366zm.01785 9.8678 2.123341-6.92341 2.105488 6.92341zm34.133782-9.8678h-3.622098v15.9878h10.134806v-2.83683h-6.512704ZM9.0820981 113.8083h3.6043169c-.07134 1.83805-1.159829 3.39-3.8541218 3.39-3.1403563 0-4.4607442-2.21268-4.4607442-5.29976v-.1778c0-3.26561 1.6415635-5.35317 4.4072564-5.35317 1.9270246 0 3.1581956.85609 3.4615616 2.73h3.604244c-.374708-3.96147-3.550757-5.58512-7.1193666-5.58512-4.7283954 0-8.13642339 3.35414-8.13642339 8.17243v.17854c0 4.74659 2.90841819 8.13659 8.13642339 8.13659 4.7819276 0 7.5119276-2.83683 7.5119276-7.11952v-1.69536H9.0820981v2.64073zm66.1622969-.87439h5.46v-2.64073h-5.46v-3.72952h6.833415v-2.81926H71.657712v15.9878h10.777171v-2.80097h-7.190488zm24.998045-4.3361c0-3.31902-2.391215-4.85341-6.174142-4.85341h-5.727073v16.00609h3.60439v-6.17414h1.569512l3.836342 6.17414h3.836341l-4.228536-6.79902c1.873171-.55317 3.283166-1.83805 3.283166-4.24683zm-3.53341.1961c0 1.55268-.927805 2.30195-2.729268 2.30195h-2.034147v-4.58561h2.034147c1.748048 0 2.729268.55317 2.729268 2.19439zm14.64951 1.08878-3.24731-6.13829h-3.97903l5.28146 9.10024v6.88756h3.64025v-6.88756l4.9961-9.10024h-3.51513zM23.909709 78.976834h1.570171l3.836268 6.174147h3.854122l-4.228829-6.798293c1.873536-.553171 3.283097-1.838049 3.283097-4.24683v-.08927c0-3.319171-2.390926-4.853781-6.173634-4.853781h-5.727659v15.988172h3.604317v-6.174147zm0-7.048171h2.034073c1.748634 0 2.73.553097 2.73 2.194756v.08927c0 1.534391-.909951 2.301952-2.73 2.301952h-2.034073ZM4.6748856 81.600005h5.7989934l1.088414 3.550976h3.782708l-5.192269-15.988172h-4.7106L.1784305 85.150981h3.4080258zm2.9083831-9.492952 2.105488 6.923196H5.4599784ZM41.217441 85.150981h3.657879v-13.16883h4.318024v-2.819342H36.899417v2.819342h4.318024zm117.942809-50.56954-3.17634 6.138293-3.24732-6.138293h-3.97902l5.28146 9.100318v6.887781h3.64025v-6.887781l4.9961-9.100318zm-113.785321 0h-3.640024v16.005952h3.640024zm65.644831 13.597025c-2.37366 0-2.98024-1.195536-3.14049-2.623097h-3.4617c.19609 3.194048 2.21268 5.263975 6.60219 5.263975 3.7822 0 6.10244-2.248317 6.10244-5.103366 0-3.318951-1.98073-4.371732-5.85293-4.853488-2.46219-.356927-2.97951-.892244-2.97951-2.034219 0-1.070635.80269-1.820122 2.39049-1.820122 1.58854 0 2.44463.678073 2.65902 2.123487h3.33659c-.28537-3.176268-2.39122-4.782219-5.99561-4.782219s-5.81634 2.034219-5.81634 4.764366c0 3.087 1.67707 4.318171 5.76293 4.853488 2.35536.356927 3.01536.802976 3.01536 2.08778 0 1.284732-1.05219 2.123415-2.64073 2.123415zm21.28683-10.777683h4.31781V50.56954h3.64024V37.400783h4.31781v-2.819342h-12.27586ZM1.3025415 34.581441v9.760537c0 4.246903 2.3909709 6.49522 6.6019468 6.49522 4.2109757 0 6.7625127-2.248317 6.7625127-6.620122v-9.617781h-3.640025v9.403683c0 2.926391-.945658 3.961317-3.0867804 3.961317-2.1412026 0-2.979827-1.159829-2.979827-3.818561v-9.528659H1.3025415Zm125.3655185 0h-3.64025v16.005952h3.64025zM81.221712 47.768052h-7.190488v-3.997025h5.459268v-2.640878h-5.459268v-3.729366h6.833415v-2.819342H70.426541V50.56954h10.795171ZM65.376955 34.581441h-3.390146l-3.800562 12.276586-3.800561-12.276586h-3.836268l5.352878 15.988099h4.157415zm25.337197 9.814098h1.570244l3.836341 6.174001h3.836342l-4.229269-6.798513c1.873903-.553171 3.283171-1.837903 3.283171-4.24683v-.08927c0-3.318951-2.390488-4.853488-6.173415-4.853488h-5.727805v16.005952h3.604391zm0-7.048317h2.034146c1.748781 0 2.73.55317 2.73 2.194756v.08927c0 1.552391-.910244 2.301878-2.73 2.301878h-2.034146Zm-59.114126 7.779951-6.084439-10.545732h-4.210976V50.56954h3.22961V39.185124l6.673317 11.384416h3.622098V34.581441h-3.22961zm-4.853268-32.689977 1.088414 3.550902h3.782708L26.425538 0h-4.728366l-5.263683 15.988098h3.408l1.088415-3.550902zm-2.89061-9.4929592 2.105488 6.9234223h-4.228757ZM5.2815442 15.988098h3.6400173V9.1003908L13.917586 0h-3.515049l-3.1761 6.138293L3.9790027 0H0l5.2815442 9.1003908Zm57.8472398-2.801487h-7.172927V9.1895859h5.459927V6.5665467h-5.459927V2.8193343h6.816V0H52.35154v15.988098h10.777244Zm-16.076635-.035708h-6.512708V0H36.91727v15.988098h10.134879z"/></g>
<svg xmlns="http://www.w3.org/2000/svg" viewBox="0 0 163 120"><g id="main" fill="var(--color-ui-color, #231f20)"><path d="M44.518466 103.7444h-3.622171v15.9878h10.134879v-2.83683h-6.512708zm-18.824489 0-5.263683 16.00609h3.408l1.088488-3.55097h5.799l1.088415 3.55097h3.782708l-5.192342-16.00609h-4.728366zm.01785 9.8678 2.123341-6.92341 2.105488 6.92341zm34.133782-9.8678h-3.622098v15.9878h10.134806v-2.83683h-6.512704ZM9.0820981 113.8083h3.6043169c-.07134 1.83805-1.159829 3.39-3.8541218 3.39-3.1403563 0-4.4607442-2.21268-4.4607442-5.29976v-.1778c0-3.26561 1.6415635-5.35317 4.4072564-5.35317 1.9270246 0 3.1581956.85609 3.4615616 2.73h3.604244c-.374708-3.96147-3.550757-5.58512-7.1193666-5.58512-4.7283954 0-8.13642339 3.35414-8.13642339 8.17243v.17854c0 4.74659 2.90841819 8.13659 8.13642339 8.13659 4.7819276 0 7.5119276-2.83683 7.5119276-7.11952v-1.69536H9.0820981v2.64073zm66.1622969-.87439h5.46v-2.64073h-5.46v-3.72952h6.833415v-2.81926H71.657712v15.9878h10.777171v-2.80097h-7.190488zm24.998045-4.3361c0-3.31902-2.391215-4.85341-6.174142-4.85341h-5.727073v16.00609h3.60439v-6.17414h1.569512l3.836342 6.17414h3.836341l-4.228536-6.79902c1.873171-.55317 3.283166-1.83805 3.283166-4.24683zm-3.53341.1961c0 1.55268-.927805 2.30195-2.729268 2.30195h-2.034147v-4.58561h2.034147c1.748048 0 2.729268.55317 2.729268 2.19439zm14.64951 1.08878-3.24731-6.13829h-3.97903l5.28146 9.10024v6.88756h3.64025v-6.88756l4.9961-9.10024h-3.51513zM23.909709 78.976834h1.570171l3.836268 6.174147h3.854122l-4.228829-6.798293c1.873536-.553171 3.283097-1.838049 3.283097-4.24683v-.08927c0-3.319171-2.390926-4.853781-6.173634-4.853781h-5.727659v15.988172h3.604317v-6.174147zm0-7.048171h2.034073c1.748634 0 2.73.553097 2.73 2.194756v.08927c0 1.534391-.909951 2.301952-2.73 2.301952h-2.034073ZM4.6748856 81.600005h5.7989934l1.088414 3.550976h3.782708l-5.192269-15.988172h-4.7106L.1784305 85.150981h3.4080258zm2.9083831-9.492952 2.105488 6.923196H5.4599784ZM41.217441 85.150981h3.657879v-13.16883h4.318024v-2.819342H36.899417v2.819342h4.318024zm117.942809-50.56954-3.17634 6.138293-3.24732-6.138293h-3.97902l5.28146 9.100318v6.887781h3.64025v-6.887781l4.9961-9.100318zm-113.785321 0h-3.640024v16.005952h3.640024zm65.644831 13.597025c-2.37366 0-2.98024-1.195536-3.14049-2.623097h-3.4617c.19609 3.194048 2.21268 5.263975 6.60219 5.263975 3.7822 0 6.10244-2.248317 6.10244-5.103366 0-3.318951-1.98073-4.371732-5.85293-4.853488-2.46219-.356927-2.97951-.892244-2.97951-2.034219 0-1.070635.80269-1.820122 2.39049-1.820122 1.58854 0 2.44463.678073 2.65902 2.123487h3.33659c-.28537-3.176268-2.39122-4.782219-5.99561-4.782219s-5.81634 2.034219-5.81634 4.764366c0 3.087 1.67707 4.318171 5.76293 4.853488 2.35536.356927 3.01536.802976 3.01536 2.08778 0 1.284732-1.05219 2.123415-2.64073 2.123415zm21.28683-10.777683h4.31781V50.56954h3.64024V37.400783h4.31781v-2.819342h-12.27586ZM1.3025415 34.581441v9.760537c0 4.246903 2.3909709 6.49522 6.6019468 6.49522 4.2109757 0 6.7625127-2.248317 6.7625127-6.620122v-9.617781h-3.640025v9.403683c0 2.926391-.945658 3.961317-3.0867804 3.961317-2.1412026 0-2.979827-1.159829-2.979827-3.818561v-9.528659H1.3025415Zm125.3655185 0h-3.64025v16.005952h3.64025zM81.221712 47.768052h-7.190488v-3.997025h5.459268v-2.640878h-5.459268v-3.729366h6.833415v-2.819342H70.426541V50.56954h10.795171ZM65.376955 34.581441h-3.390146l-3.800562 12.276586-3.800561-12.276586h-3.836268l5.352878 15.988099h4.157415zm25.337197 9.814098h1.570244l3.836341 6.174001h3.836342l-4.229269-6.798513c1.873903-.553171 3.283171-1.837903 3.283171-4.24683v-.08927c0-3.318951-2.390488-4.853488-6.173415-4.853488h-5.727805v16.005952h3.604391zm0-7.048317h2.034146c1.748781 0 2.73.55317 2.73 2.194756v.08927c0 1.552391-.910244 2.301878-2.73 2.301878h-2.034146Zm-59.114126 7.779951-6.084439-10.545732h-4.210976V50.56954h3.22961V39.185124l6.673317 11.384416h3.622098V34.581441h-3.22961zm-4.853268-32.689977 1.088414 3.550902h3.782708L26.425538 0h-4.728366l-5.263683 15.988098h3.408l1.088415-3.550902zm-2.89061-9.4929592 2.105488 6.9234223h-4.228757ZM5.2815442 15.988098h3.6400173V9.1003908L13.917586 0h-3.515049l-3.1761 6.138293L3.9790027 0H0l5.2815442 9.1003908Zm57.8472398-2.801487h-7.172927V9.1895859h5.459927V6.5665467h-5.459927V2.8193343h6.816V0H52.35154v15.988098h10.777244Zm-16.076635-.035708h-6.512708V0H36.91727v15.988098h10.134879z"/></g></svg>
